<svg width="1024" height="1024" viewBox="0 0 1024 1024" fill="none" xmlns="http://www.w3.org/2000/svg">
  <defs>
    <linearGradient id="tile-fill" x1="512" y1="0" x2="512" y2="1024" gradientUnits="userSpaceOnUse">
      <stop offset="0" stop-color="#1A1D23"/>
      <stop offset="0.58" stop-color="#12151B"/>
      <stop offset="1" stop-color="#0B0D12"/>
    </linearGradient>
    <linearGradient id="tile-highlight" x1="512" y1="44" x2="512" y2="430" gradientUnits="userSpaceOnUse">
      <stop offset="0" stop-color="white" stop-opacity="0.11"/>
      <stop offset="1" stop-color="white" stop-opacity="0"/>
    </linearGradient>
    <linearGradient id="screen-fill" x1="512" y1="280" x2="512" y2="744" gradientUnits="userSpaceOnUse">
      <stop offset="0" stop-color="#12161D"/>
      <stop offset="1" stop-color="#0B0E13"/>
    </linearGradient>
    <radialGradient id="pulse-glow" cx="0" cy="0" r="1" gradientUnits="userSpaceOnUse" gradientTransform="translate(708 446) rotate(128.8) scale(320.132 270.339)">
      <stop offset="0" stop-color="#34D399" stop-opacity="0.72"/>
      <stop offset="0.45" stop-color="#34D399" stop-opacity="0.22"/>
      <stop offset="1" stop-color="#34D399" stop-opacity="0"/>
    </radialGradient>
    <filter id="shadow" x="102" y="190" width="820" height="654" filterUnits="userSpaceOnUse" color-interpolation-filters="sRGB">
      <feFlood flood-opacity="0" result="BackgroundImageFix"/>
      <feColorMatrix in="SourceAlpha" type="matrix" values="0 0 0 0 0 0 0 0 0 0 0 0 0 0 0 0 0 0 127 0" result="hardAlpha"/>
      <feOffset dy="16"/>
      <feGaussianBlur stdDeviation="18"/>
      <feComposite in2="hardAlpha" operator="out"/>
      <feColorMatrix type="matrix" values="0 0 0 0 0 0 0 0 0 0 0 0 0 0 0 0 0 0 0.28 0"/>
      <feBlend mode="normal" in2="BackgroundImageFix" result="effect1_dropShadow_1_1"/>
      <feBlend mode="normal" in="SourceGraphic" in2="effect1_dropShadow_1_1" result="shape"/>
    </filter>
  </defs>

  <rect width="1024" height="1024" rx="228" fill="url(#tile-fill)"/>
  <rect width="1024" height="1024" rx="228" fill="url(#tile-highlight)"/>
  <rect x="8" y="8" width="1008" height="1008" rx="220" stroke="white" stroke-opacity="0.06" stroke-width="4"/>

  <g filter="url(#shadow)">
    <rect x="150" y="238" width="724" height="548" rx="84" fill="#F5F7FA"/>
    <rect x="172" y="260" width="680" height="504" rx="62" fill="url(#screen-fill)"/>
    <rect x="172" y="260" width="680" height="504" rx="62" stroke="white" stroke-opacity="0.06" stroke-width="4"/>

    <rect x="258" y="348" width="98" height="326" rx="20" fill="#F5F7FA"/>

    <ellipse cx="684" cy="446" rx="186" ry="152" fill="url(#pulse-glow)"/>
    <path d="M604 504C632 456 680 430 738 430" stroke="#34D399" stroke-opacity="0.3" stroke-width="20" stroke-linecap="round"/>
    <path d="M630 552C668 487 731 456 808 456" stroke="#34D399" stroke-opacity="0.18" stroke-width="18" stroke-linecap="round"/>
    <circle cx="766" cy="430" r="18" fill="#86EFAC"/>

    <path
      d="M486 470L558 518L486 566"
      stroke="#F5F7FA"
      stroke-width="36"
      stroke-linecap="round"
      stroke-linejoin="round"
    />

    <rect x="592" y="502" width="120" height="30" rx="15" fill="#34D399"/>
    <rect x="592" y="502" width="64" height="30" rx="15" fill="#A7F3D0" fill-opacity="0.42"/>
  </g>
</svg>
